<svg xmlns="http://www.w3.org/2000/svg" viewBox="0 0 500 500"><g id="freepik--Floor--inject-68"><path id="freepik--floor--inject-68" d="M84.59,248c-91.35,52.74-91.34,138.25,0,191s239.46,52.74,330.81,0,91.34-138.25,0-191S175.94,195.29,84.59,248Z" style="fill:#fafafa"></path></g><g id="freepik--Plants--inject-68"><g id="freepik--plants--inject-68"><path d="M435.27,369.9s-10-35.38-1-72c5-20.48,17-31,24.81-32.71,8.78-1.92,18.66,5.53,12.18,19.37-6.17,13.16-20.1,19.72-25.13,52.87-3.31,21.85-.94,35.8-.94,35.8Z" style="fill:#D144C9"></path><path d="M435.27,369.9s-10-35.38-1-72c5-20.48,17-31,24.81-32.71,8.78-1.92,18.66,5.53,12.18,19.37-6.17,13.16-20.1,19.72-25.13,52.87-3.31,21.85-.94,35.8-.94,35.8Z" style="fill:#fff;opacity:0.5"></path><path d="M439.81,360.19a.56.56,0,0,0,.43-.66c-8.06-39,7.4-74,20.95-86.42a.56.56,0,0,0,0-.79.56.56,0,0,0-.79,0c-13.75,12.57-29.44,48-21.29,87.47A.55.55,0,0,0,439.81,360.19Z" style="fill:#fff"></path><path d="M445.22,373.19c.34-9.2,4.36-19.05,14.07-30.06s23.54-21.6,20.46-30.15-14.59-5.54-22.31.11-24.18,26.68-17.2,58.46Z" style="fill:#D144C9"></path><path d="M445.22,373.19c.34-9.2,4.36-19.05,14.07-30.06s23.54-21.6,20.46-30.15-14.59-5.54-22.31.11-24.18,26.68-17.2,58.46Z" style="fill:#fff;opacity:0.65"></path><path d="M441.9,363.29a.58.58,0,0,0,.45-.56c-.46-19.34,19.17-45.62,29-50.34a.55.55,0,0,0,.26-.74.56.56,0,0,0-.74-.27c-10.31,4.95-30.11,31.27-29.64,51.37a.56.56,0,0,0,.57.55Z" style="fill:#fff"></path></g><g id="freepik--plants--inject-68"><path d="M56.46,336.68s8.14-28.86.79-58.77C53.14,261.2,43.4,252.62,37,251.23c-7.16-1.57-15.23,4.5-9.94,15.8,5,10.73,16.4,16.09,20.5,43.13,2.7,17.82.77,29.21.77,29.21Z" style="fill:#D144C9"></path><path d="M56.46,336.68s8.14-28.86.79-58.77C53.14,261.2,43.4,252.62,37,251.23c-7.16-1.57-15.23,4.5-9.94,15.8,5,10.73,16.4,16.09,20.5,43.13,2.7,17.82.77,29.21.77,29.21Z" style="fill:#fff;opacity:0.5"></path><path d="M52.76,328.76a.46.46,0,0,1-.36-.54c6.58-31.83-6-60.39-17.09-70.5a.45.45,0,1,1,.61-.67c11.22,10.25,24,39.17,17.38,71.35A.47.47,0,0,1,52.76,328.76Z" style="fill:#fff"></path><path d="M48.34,339.37c-.28-7.51-3.56-15.54-11.48-24.53s-19.2-17.62-16.69-24.6,11.91-4.52,18.2.1S58.1,312.1,52.4,338Z" style="fill:#D144C9"></path><path d="M48.34,339.37c-.28-7.51-3.56-15.54-11.48-24.53s-19.2-17.62-16.69-24.6,11.91-4.52,18.2.1S58.1,312.1,52.4,338Z" style="fill:#fff;opacity:0.65"></path><path d="M51.05,331.28a.46.46,0,0,1-.37-.45C51.05,315.05,35,293.61,27,289.76a.45.45,0,0,1,.39-.82c8.41,4,24.57,25.51,24.18,41.91a.44.44,0,0,1-.46.44Z" style="fill:#fff"></path></g></g><g id="freepik--Shadows--inject-68"><ellipse id="freepik--Shadow--inject-68" cx="134.54" cy="368.09" rx="98.66" ry="56.96" style="fill:#e0e0e0"></ellipse><ellipse id="freepik--shadow--inject-68" cx="388.53" cy="386.97" rx="68.56" ry="39.58" style="fill:#e0e0e0"></ellipse><path id="freepik--shadow--inject-68" d="M164.35,463.36a15.18,15.18,0,0,1-7.47-1.81l-6.64-3.83a6.66,6.66,0,0,1-3.7-5.51c-.06-2.21,1.25-4.29,3.58-5.7l39.27-23.79,10.37-4.7,73.11-44c1.75-1,3.73-3.69,5.33-5.85l1.07-1.44a25.91,25.91,0,0,1,7.6-6.36,44.32,44.32,0,0,1,21.53-5.65c5.24,0,9.8,1,13.19,3,3.78,2.18,5.86,5.4,5.86,9.06,0,5-3.81,10-10.45,13.87a43,43,0,0,1-13,4.78,37.79,37.79,0,0,0-9.77,3.29l-73.49,44.17-7.15,6.53-42.4,22.37a14.88,14.88,0,0,1-6.85,1.54Z" style="fill:#e0e0e0"></path></g><g id="freepik--Microscope--inject-68"><g id="freepik--microscope--inject-68"><path d="M368.45,270.71v7.7L259.63,341.25v-7.71c0-4.26,4.25-10.16,9.49-13.19L359,268.47c3.16-1.82,6-2.18,7.67-1.26A3.7,3.7,0,0,1,368.45,270.71Z" style="fill:#ebebeb"></path><path d="M368.45,270.71v7.7L259.63,341.25v-7.71c0-4.26,4.25-10.16,9.49-13.19L359,268.47c3.16-1.82,6-2.18,7.67-1.26A3.7,3.7,0,0,1,368.45,270.71Z" style="opacity:0.15"></path><path d="M304.55,231.38l-.13-.08h0c-1.72-1-4.56-.65-7.77,1.2L206.8,284.37c-5.24,3-9.49,8.93-9.49,13.19v7.71l62.32,36v-7.71c0-4.26,4.25-10.16,9.49-13.19L359,268.47c3.16-1.82,6-2.18,7.67-1.26Z" style="fill:#e0e0e0"></path><path d="M234.21,274.84c7.55-4.36,17.82-6.18,27.66-5.48l37.7-21.77,29.05,16.77-37.69,21.76c1.21,5.68-2,11.61-9.51,16-13,7.53-34.17,7.53-47.21,0S221.18,282.37,234.21,274.84Z" style="opacity:0.25"></path><path d="M335.59,247.48v12.85l-22.26,12.85V260.33c0-7.09,5-15.73,11.14-19.28,3.11-1.8,5.92-2,7.93-.73S335.59,244,335.59,247.48Z" style="fill:#e0e0e0"></path><path d="M335.59,247.48v12.85l-22.26,12.85V260.33c0-7.09,5-15.73,11.14-19.28,3.11-1.8,5.92-2,7.93-.73S335.59,244,335.59,247.48Z" style="fill:#fff;opacity:0.6000000000000001"></path><path d="M305.77,224.94l-.17-.11c-2-1.14-4.78-1-7.84.8-6.15,3.55-11.13,12.18-11.13,19.28v12.85l26.7,15.42V260.33c0-7.09,5-15.73,11.14-19.28,2.95-1.7,5.62-1.93,7.6-.92Z" style="fill:#e0e0e0"></path><path d="M324.46,252.34c1.64-1,3-.18,3,1.71a6.58,6.58,0,0,1-3,5.15c-1.64.95-3,.18-3-1.71A6.57,6.57,0,0,1,324.46,252.34Z" style="opacity:0.25"></path><path d="M323.21,134.35,330,123s-15.86-9.06-20.7-12l-8,11.12c10.82,10,21,34.43,16.51,62.2-2.61,16-8.25,28.11-18.46,44.16l20.7,12c11.15-14.83,15.36-23.05,21.32-42.5S342.55,144.93,323.21,134.35Z" style="fill:#ebebeb"></path><path d="M323.21,134.36c7.15,4.26,22.45,24.25,17.43,59.09-2.3,16-11.71,30.52-20.68,47.07a17.26,17.26,0,0,1,1.67-1.11c3.11-1.8,5.92-1.94,7.93-.73l2.84,1.64a4.9,4.9,0,0,1,1.72,1.61c12.65-17.69,19.83-39.15,21.05-56.87,2.5-36.29-14.26-55.48-25.21-62Z" style="fill:#e0e0e0"></path><path d="M330,123.05a38.61,38.61,0,0,0-18.37-5.11l-2.11,12.17s5.43-.9,13.73,4.25Z" style="fill:#ebebeb"></path><polygon points="277.79 273.96 277.79 263.69 248.74 246.91 248.74 257.19 277.79 273.96" style="fill:#e0e0e0"></polygon><polygon points="277.79 273.96 277.79 263.69 248.74 246.91 248.74 257.19 277.79 273.96" style="opacity:0.15"></polygon><polygon points="277.79 273.96 328.62 244.62 328.62 234.34 277.79 263.69 277.79 273.96" style="fill:#e0e0e0"></polygon><polygon points="277.79 273.96 328.62 244.62 328.62 234.34 277.79 263.69 277.79 273.96" style="opacity:0.15"></polygon><polygon points="248.74 246.91 299.57 217.56 328.62 234.34 277.79 263.69 248.74 246.91" style="fill:#e0e0e0"></polygon><path d="M224.45,267.88v-9.43c0-4.93,3.24-9.87,9.76-13.63,13-7.53,34.17-7.53,47.21,0,6.51,3.76,9.76,8.69,9.76,13.62h0v9.44h0c.09,5-3.15,10-9.75,13.81-13,7.53-34.17,7.53-47.21,0-6.6-3.81-9.84-8.82-9.75-13.81Z" style="fill:#e0e0e0"></path><path d="M224.45,267.88v-9.43c0-4.93,3.24-9.87,9.76-13.63,13-7.53,34.17-7.53,47.21,0,6.51,3.76,9.76,8.69,9.76,13.62h0v9.44h0c.09,5-3.15,10-9.75,13.81-13,7.53-34.17,7.53-47.21,0-6.6-3.81-9.84-8.82-9.75-13.81Z" style="opacity:0.15"></path><ellipse cx="257.81" cy="258.44" rx="33.38" ry="19.27" style="fill:#e0e0e0"></ellipse><path d="M232.79,257.93v-7.07c0-3.7,2.44-7.4,7.33-10.22,9.77-5.65,25.62-5.65,35.39,0,4.89,2.82,7.33,6.52,7.33,10.22h0v7.07h0c.07,3.75-2.37,7.5-7.32,10.36-9.77,5.65-25.62,5.65-35.39,0-5-2.86-7.39-6.61-7.32-10.36Z" style="fill:#f0f0f0"></path><path d="M275.51,240.64c-9.77-5.65-25.62-5.65-35.39,0s-9.78,14.79,0,20.43,25.62,5.65,35.39,0S285.29,246.28,275.51,240.64Z" style="fill:#fafafa"></path><path d="M274.5,241.22c-9.21-5.32-24.16-5.32-33.37,0s-9.22,13.95,0,19.27,24.16,5.32,33.37,0S283.72,246.54,274.5,241.22Z" style="fill:#e6e6e6"></path><path d="M241.13,247.76c9.21-5.32,24.16-5.32,33.37,0a14.11,14.11,0,0,1,6.23,6.37,14.14,14.14,0,0,1-6.23,6.36c-9.21,5.32-24.16,5.32-33.37,0a14.14,14.14,0,0,1-6.23-6.36A14.11,14.11,0,0,1,241.13,247.76Z" style="fill:#f0f0f0"></path><path d="M262.05,251.68a9.36,9.36,0,0,0-8.47,0c-2.34,1.35-2.34,3.54,0,4.89a9.36,9.36,0,0,0,8.47,0C264.39,255.22,264.39,253,262.05,251.68Z" style="fill:#e0e0e0"></path><path d="M251.32,256.64a2.88,2.88,0,0,0-2.62,0,.79.79,0,0,0,0,1.51,2.88,2.88,0,0,0,2.62,0A.79.79,0,0,0,251.32,256.64Z" style="fill:#e0e0e0"></path><path d="M253.71,253c0,.64.92,1.17,2,1.17s2.05-.53,2.05-1.17-.91-1.17-2.05-1.17S253.71,252.31,253.71,253Z" style="fill:#fff;opacity:0.6000000000000001"></path><path d="M248.93,257c0,.2.28.36.63.36s.64-.16.64-.36-.29-.37-.64-.37S248.93,256.83,248.93,257Z" style="fill:#fff;opacity:0.6000000000000001"></path><path d="M246.94,200.14V174.05l-18.15.06V200.2h0c0,1.34.9,2.68,2.67,3.7a14.23,14.23,0,0,0,12.84,0C246.06,202.83,246.94,201.48,246.94,200.14Z" style="fill:#e0e0e0"></path><path d="M228.78,194.76c0,1.34.9,2.68,2.67,3.7a14.23,14.23,0,0,0,12.84,0c1.77-1,2.65-2.38,2.65-3.72v5.44c0,1.34-.88,2.69-2.65,3.72a14.23,14.23,0,0,1-12.84,0c-1.77-1-2.66-2.36-2.67-3.7h0v-5.44Z" style="fill:#e0e0e0"></path><path d="M228.78,194.76c0,1.34.9,2.68,2.67,3.7a14.23,14.23,0,0,0,12.84,0c1.77-1,2.65-2.38,2.65-3.72v5.44c0,1.34-.88,2.69-2.65,3.72a14.23,14.23,0,0,1-12.84,0c-1.77-1-2.66-2.36-2.67-3.7h0v-5.44Z" style="fill:#fff;opacity:0.6000000000000001"></path><path d="M268.65,200.14V174.05l18.15.06V200.2h0c0,1.34-.9,2.68-2.67,3.7a14.23,14.23,0,0,1-12.84,0C269.53,202.83,268.65,201.48,268.65,200.14Z" style="fill:#e0e0e0"></path><path d="M286.81,194.76c0,1.34-.9,2.68-2.67,3.7a14.23,14.23,0,0,1-12.84,0c-1.77-1-2.65-2.38-2.65-3.72v5.44c0,1.34.88,2.69,2.65,3.72a14.23,14.23,0,0,0,12.84,0c1.77-1,2.66-2.36,2.67-3.7h0v-5.44Z" style="fill:#e0e0e0"></path><path d="M286.81,194.76c0,1.34-.9,2.68-2.67,3.7a14.23,14.23,0,0,1-12.84,0c-1.77-1-2.65-2.38-2.65-3.72v5.44c0,1.34.88,2.69,2.65,3.72a14.23,14.23,0,0,0,12.84,0c1.77-1,2.66-2.36,2.67-3.7h0v-5.44Z" style="opacity:0.15"></path><path d="M266.9,211.64V185.55l-18.15.06V211.7h0c0,1.34.9,2.68,2.67,3.7a14.2,14.2,0,0,0,12.84,0C266,214.33,266.9,213,266.9,211.64Z" style="fill:#ebebeb"></path><path d="M248.74,206.26c0,1.34.9,2.68,2.67,3.7a14.23,14.23,0,0,0,12.84,0c1.77-1,2.65-2.38,2.65-3.72v5.44c0,1.34-.88,2.69-2.65,3.72a14.2,14.2,0,0,1-12.84,0c-1.77-1-2.66-2.36-2.67-3.7h0v-5.44Z" style="fill:#e0e0e0"></path><path d="M227,151.33c0-3.67,2-7.34,6-10.42a38.92,38.92,0,0,0,6.39-6.31L248,124.05a41.19,41.19,0,0,1,43.46-13.63,34,34,0,0,1,7.21,3c6.41,3.67,9.3,8.62,8.67,13.45l.05,30.3c.36,4.64-2.52,9.36-8.64,12.92l-21,12.14c-11.6,6.74-30.44,6.8-42.08.13-5.8-3.33-8.72-7.7-8.76-12.08S227,155.72,227,151.33Z" style="fill:#ebebeb"></path><polygon points="299.57 161.31 292.31 165.5 292.31 161.31 299.57 157.12 299.57 161.31" style="fill:#e0e0e0"></polygon><path d="M286.38,152.85c-10.5,12.76-27.63,18.38-43.46,13.62a33.81,33.81,0,0,1-7.21-3C225,157.31,224.12,147.66,233,140.9a38.74,38.74,0,0,0,6.38-6.29L248,124.05a41.19,41.19,0,0,1,43.46-13.63,34,34,0,0,1,7.21,3c10.67,6.11,11.59,15.76,2.73,22.52a39.19,39.19,0,0,0-6.38,6.3Z" style="fill:#fafafa"></path><path d="M235.71,178.77c11.64,6.68,30.48,6.62,42.08-.13l21-12.13c5.79-3.37,8.69-7.78,8.67-12.17V158c0,4.4-2.88,8.8-8.67,12.17l-21,12.14c-11.6,6.74-30.44,6.8-42.08.13-5.8-3.33-8.72-7.7-8.76-12.08V166.7C227,171.08,229.91,175.45,235.71,178.77Z" style="fill:#e0e0e0"></path><path d="M307.48,125.58l0-20.64-59.51.18v20.65h0c0,4.4,2.93,8.78,8.75,12.12,11.64,6.67,30.48,6.61,42.08-.13C304.6,134.39,307.49,130,307.48,125.58Z" style="fill:#ebebeb"></path><path d="M248,105.12l59.51-.18s0,.2,0,4.59-2.87,8.8-8.68,12.18c-11.59,6.74-30.43,6.8-42.08.13-5.82-3.34-8.73-7.73-8.75-12.12S248,105.12,248,105.12Z" style="fill:#e0e0e0"></path><path d="M256.63,93c11.6-6.75,30.44-6.8,42.08-.13s11.67,17.55.08,24.29-30.44,6.81-42.08.13S245,99.7,256.63,93Z" style="fill:#e0e0e0"></path><path d="M256.63,93c11.6-6.75,30.44-6.8,42.08-.13s11.67,17.55.08,24.29-30.44,6.81-42.08.13S245,99.7,256.63,93Z" style="fill:#fff;opacity:0.5"></path><path d="M290.58,103.29v-37l-25.72.08v37h0c0,1.9,1.27,3.8,3.79,5.24,5,2.89,13.17,2.86,18.18,0C289.34,107.1,290.59,105.19,290.58,103.29Z" style="fill:#ebebeb"></path><path d="M290.58,103.29v-37l-25.72.08v37h0c0,1.9,1.27,3.8,3.79,5.24,5,2.89,13.17,2.86,18.18,0C289.34,107.1,290.59,105.19,290.58,103.29Z" style="fill:#e0e0e0"></path><path d="M264.86,66.41l25.72-.08s0,3.52,0,5.42-1.24,3.8-3.75,5.26c-5,2.92-13.15,2.94-18.18.06-2.52-1.44-3.78-3.34-3.79-5.24S264.86,66.41,264.86,66.41Z" style="fill:#e0e0e0"></path><path d="M268.61,61.15c5-2.91,13.15-2.94,18.19,0s5,7.58,0,10.5-13.16,2.94-18.19.05S263.59,64.07,268.61,61.15Z" style="fill:#f5f5f5"></path><path d="M271.17,62.62a14.43,14.43,0,0,1,13.08,0c3.61,2.07,3.63,5.45,0,7.55a14.43,14.43,0,0,1-13.08,0C267.57,68.1,267.56,64.72,271.17,62.62Z" style="fill:#e0e0e0"></path><path d="M284.25,67.92A7,7,0,0,1,285.72,69a7.15,7.15,0,0,1-1.45,1.1,14.43,14.43,0,0,1-13.08,0,7,7,0,0,1-1.47-1.11,7.15,7.15,0,0,1,1.45-1.1A14.43,14.43,0,0,1,284.25,67.92Z" style="fill:#f5f5f5"></path><path d="M280.63,68.43c-.11.5.36,1,1.05,1.17a1.14,1.14,0,0,0,1.45-.63c.11-.49-.37-1-1.06-1.17S280.73,67.93,280.63,68.43Z" style="fill:#fff"></path><path d="M279,67.88a.5.5,0,1,0,.59-.38A.49.49,0,0,0,279,67.88Z" style="fill:#fff"></path><path d="M314.76,110.24c-1.78-1.11-4.27-1-7,.61a17,17,0,0,0-4.2,3.51c-.31.35-.61.71-.89,1.07a.13.13,0,0,1-.05.06,23.91,23.91,0,0,0-3.68,6.85,17.15,17.15,0,0,0-.94,5.4c0,3,1,5.19,2.73,6.24l3.25,1.88a4.87,4.87,0,0,1-1.32-1.21,8.31,8.31,0,0,1-1.41-5c0-6.22,4.37-13.79,9.76-16.9a8.19,8.19,0,0,1,5.09-1.27,4.43,4.43,0,0,1,1.87.64h0Z" style="fill:#e0e0e0"></path><path d="M314.76,110.24c-1.78-1.11-4.27-1-7,.61a17,17,0,0,0-4.2,3.51c-.31.35-.61.71-.89,1.07a.13.13,0,0,1-.05.06,23.91,23.91,0,0,0-3.68,6.85,17.15,17.15,0,0,0-.94,5.4c0,3,1,5.19,2.73,6.24l3.25,1.88a4.87,4.87,0,0,1-1.32-1.21,8.31,8.31,0,0,1-1.41-5c0-6.22,4.37-13.79,9.76-16.9a8.19,8.19,0,0,1,5.09-1.27,4.43,4.43,0,0,1,1.87.64h0Z" style="fill:#fff;opacity:0.7000000000000001"></path><path d="M317.94,112.09a4.43,4.43,0,0,0-1.87-.64,8.19,8.19,0,0,0-5.09,1.27c-5.39,3.11-9.76,10.68-9.76,16.9a8.31,8.31,0,0,0,1.41,5,4.87,4.87,0,0,0,1.32,1.21l.16.09a5,5,0,0,0,2.68.63,9,9,0,0,0,4.19-1.33c5.38-3.11,9.76-10.67,9.76-16.89C320.74,115.29,319.67,113.12,317.94,112.09Z" style="fill:#e0e0e0"></path><path d="M311,119.45c2.17-1.25,3.93-.24,3.93,2.27a8.7,8.7,0,0,1-3.93,6.81c-2.17,1.25-3.93.24-3.93-2.27A8.68,8.68,0,0,1,311,119.45Z" style="opacity:0.25"></path></g></g><g id="freepik--Sample--inject-68"><g id="freepik--Petri--inject-68"><path d="M221.11,341.94c-4.54-6.65-11.43-12.9-20.75-18.28-36.35-21-95.29-21-131.64,0C59.4,329,52.51,335.28,48,341.94H41.45v18.95h.07c-.35,14,8.68,28.08,27.2,38.77,36.35,21,95.29,21,131.64,0,18.52-10.69,27.54-24.76,27.2-38.77h0V341.94Z" style="fill:#D144C9"></path><path d="M221.11,341.94c-4.54-6.65-11.43-12.9-20.75-18.28-36.35-21-95.29-21-131.64,0C59.4,329,52.51,335.28,48,341.94H41.45v18.95h.07c-.35,14,8.68,28.08,27.2,38.77,36.35,21,95.29,21,131.64,0,18.52-10.69,27.54-24.76,27.2-38.77h0V341.94Z" style="fill:#fff;opacity:0.4"></path><path d="M200.36,399.66a79.75,79.75,0,0,0,6.87-4.45c-1,.48-27,13.15-58.09,16.23-31.7,3.15-68.8-10.66-83.92-21.31s-20.63-26.51-20.63-34.35l-.05-13.84H41.45v18.95h.07c-.35,14,8.68,28.08,27.2,38.77C105.07,420.65,164,420.65,200.36,399.66Z" style="fill:#D144C9;opacity:0.1"></path><path d="M68.72,379.94c-36.35-21-36.35-55,0-76s95.29-21,131.64,0,36.35,55,0,76S105.07,400.93,68.72,379.94Z" style="fill:#D144C9"></path><path d="M68.72,379.94c-36.35-21-36.35-55,0-76s95.29-21,131.64,0,36.35,55,0,76S105.07,400.93,68.72,379.94Z" style="fill:#fff;opacity:0.7000000000000001"></path><path d="M75.4,376.09c-32.67-18.86-32.67-49.44,0-68.3s85.62-18.85,118.28,0,32.66,49.44,0,68.3S108.06,394.94,75.4,376.09Z" style="fill:#D144C9"></path><path d="M75.4,376.09c-32.67-18.86-32.67-49.44,0-68.3s85.62-18.85,118.28,0,32.66,49.44,0,68.3S108.06,394.94,75.4,376.09Z" style="fill:#fff;opacity:0.4"></path><path d="M164.29,318.51c-29.8-6.5-64.84-2.91-88.92,11-11.45,6.6-18.83,14.76-22.23,23.3-6.31-15.63,1.17-32.81,22.23-44.94-10.48,6.89-13,19.22-5.44,17.86S116.63,301.82,164.29,318.51Z" style="fill:#D144C9;opacity:0.1"></path><path d="M193.68,329.48c-32.66-18.86-85.62-18.86-118.28,0-11.52,6.65-18.89,14.77-22.29,23.3,3.4,8.54,10.77,16.66,22.29,23.31,32.66,18.85,85.62,18.85,118.28,0,11.52-6.65,18.89-14.77,22.28-23.31C212.57,344.25,205.2,336.13,193.68,329.48Z" style="fill:#fff;opacity:0.4"></path><path d="M193.68,329.48c-32.66-18.86-85.62-18.86-118.28,0-11.52,6.65-18.89,14.77-22.29,23.3,3.4,8.54,10.77,16.66,22.29,23.31,32.66,18.85,85.62,18.85,118.28,0,11.52-6.65,18.89-14.77,22.28-23.31C212.57,344.25,205.2,336.13,193.68,329.48Z" style="fill:#fff;opacity:0.4"></path><path d="M215.93,352.78a22.82,22.82,0,0,1-1.45,3.11c-3.89-7.28-10.78-14.18-20.78-19.9-32.71-18.93-85.61-18.93-118.33,0-10,5.72-16.89,12.62-20.77,19.9a22.9,22.9,0,0,1-1.46-3.11c3.4-8.54,10.78-16.7,22.23-23.3,32.72-18.83,85.62-18.83,118.33,0C205.16,336.08,212.54,344.24,215.93,352.78Z" style="fill:#D144C9;opacity:0.1"></path><path d="M193.68,376.09c-15.14,9.08-32.78,13.46-50.36,14.66s-35.56-.59-52.4-6.38a86.79,86.79,0,0,1-23.51-12.43c-7-5.41-13.23-12.48-15.91-21.16a31.52,31.52,0,0,1-.93-13.38,33.31,33.31,0,0,1,5-12.37c4.92-7.5,12.16-13,19.83-17.24-7.48,4.56-14.39,10.39-18.83,17.87a32.5,32.5,0,0,0-4.61,12,29.72,29.72,0,0,0,1.09,12.68c2.66,8.19,8.72,14.89,15.59,20a85.1,85.1,0,0,0,23.08,11.76c16.37,5.91,34.08,7.82,51.5,7.06C160.61,388,178.1,384.33,193.68,376.09Z" style="fill:#fff"></path><path d="M83.87,352.27c.5-.94-.27-2.1-1.86-2.46a4.62,4.62,0,0,0-5,2.25A1.32,1.32,0,0,0,77.8,354a5,5,0,0,0,2.42.13C81.86,353.9,83.38,353.21,83.87,352.27Zm-3.21,8c-1.53,3.42,1.44,10.12,9.73,6.94,2.62-1,3.86-3,3.36-4.78C92.66,358.47,83,355,80.66,360.22Zm102.07-23c-3.58-6.64-14.29-10.33-25.92-10.09-8.23.16-17.1,1.38-25.29.83-3.14-.21-6.21-.77-9.37-.88-11.18-.38-22,2.62-28.74,7.69-4.59,3.45-6.46,8.86-4.37,13.06,1.22,2.44,3.6,4.59,6,6.74,2.62,2.3,5.29,4.59,6.62,7.21,1.21,2.37,1.26,4.88,2.27,7.29,1.75,4.15,6.49,7.86,12.85,10a46.7,46.7,0,0,0,21.43,1.73A40.28,40.28,0,0,0,155.69,374c5.33-3.87,8.22-8.72,12.3-13,4.4-4.64,10.87-8.84,14-13.83C184,344,184.45,340.44,182.73,337.24Z" style="fill:#fff"></path><path d="M157.92,370.78c-8.09,5.45-17.21,7.12-26.95,7.25-9.53.13-18.93-3.31-23-12.83a62.87,62.87,0,0,0-2.65-6.4c-1.81-3.18-5.07-4.71-8-7s-6.08-4.06-7.55-7.41c-.52-1.18-.79-2.44-.26-5.21a9.29,9.29,0,0,0-.49,8.65c1.22,2.44,3.6,4.59,6,6.74,2.62,2.3,5.29,4.59,6.62,7.21,1.21,2.37,1.26,4.88,2.27,7.29,1.75,4.15,6.49,7.86,12.85,10a46.7,46.7,0,0,0,21.43,1.73A40.28,40.28,0,0,0,155.69,374a38.54,38.54,0,0,0,6.9-6.68A33.65,33.65,0,0,1,157.92,370.78ZM82.6,353.11a4.52,4.52,0,0,1-3.14,0,1.79,1.79,0,0,1-1.23-1.79,2.17,2.17,0,0,1,.61-1A4.08,4.08,0,0,0,77,352.06,1.32,1.32,0,0,0,77.8,354a5,5,0,0,0,2.42.13,6,6,0,0,0,3.3-1.41A6.61,6.61,0,0,1,82.6,353.11Zm4.33,12.45a6.51,6.51,0,0,1-2.43-1.05,5.61,5.61,0,0,1-2-4.55,3.91,3.91,0,0,1,.48-2,4.27,4.27,0,0,0-2.35,2.25c-1.53,3.42,1.44,10.12,9.73,6.94a6.1,6.1,0,0,0,2.77-2A9.24,9.24,0,0,1,86.93,365.56Z" style="fill:#D144C9;opacity:0.1"></path></g></g><g id="freepik--Character--inject-68"><g id="freepik--character--inject-68"><g id="freepik--Arm--inject-68"><g id="freepik--arm--inject-68"><path d="M288.23,209.52c.56-1.27,1-1.39,1-1.39-.66-.55-1.18-2.76,1-4.69,0,0-2-1.06,1.06-4.47,3.47-3.87,8.39-6.14,11.06-7.45,1-.55,1.63-1.6.18-1.55-1.94.07-4,.67-5.86.05a3.59,3.59,0,0,1-1.45-.85,2.59,2.59,0,0,1-.66-1.52c-.13-1.21,1.81-1.64,2.91-1.91,4.38-1.08,7.93-3.2,12.53-3,1.47.06,3.89.07,5-.86,6.87-5.53,14.41-13.59,25.33-23.91,0,0,5-14.16,9-25,5.92-15.93,7.29-16,18.22-23.34l8.14,19s-7,18.36-13.08,33.55c-3.34,8.33-4.68,10.5-11.22,14.69-10.93,7-12.16,7.71-22.82,14.84a27.6,27.6,0,0,0-8.89,8.73,11.78,11.78,0,0,1-3.9,3.43c-3.83,2-7,2.51-10.38,4.12a43,43,0,0,0-7.69,4.46c-2.13,1.3-3.34,1.18-4.2.19s1.44-3.08,1.44-3.08-2.59,1.85-4,2C289.24,211.69,287.67,210.78,288.23,209.52Z" style="fill:#ffbda7"></path><path d="M378.42,103.61c-14.85,2.51-21.88,11.13-24.86,17.65s-13.69,36.36-13.69,36.36l-15.29,15.13a12.2,12.2,0,0,1,7.74,5,27.81,27.81,0,0,1,3.89,9.2s11.31-7.29,16.63-10.47c5-3,6.85-5.6,9.75-11.91s14-34.75,14-34.75Z" style="fill:#f5f5f5"></path><path d="M301.37,210.28a28.26,28.26,0,0,0-2.88,1.86c-1.23.91-2.54,2-4.15,1.27a2.49,2.49,0,0,1-1-.8,1.36,1.36,0,0,1,.05-1.29,4.78,4.78,0,0,1,.53-.84l-1.47.77a3.93,3.93,0,0,1-2.85.42,2.56,2.56,0,0,1-1.35-.72,1.52,1.52,0,0,1-.22-1.62,7.75,7.75,0,0,1,.79-1.26,2.14,2.14,0,0,1-.5-1.54,3.7,3.7,0,0,1,.41-1.57,4.48,4.48,0,0,1,1.2-1.52,1.9,1.9,0,0,1-.31-2.06,7.53,7.53,0,0,1,1.11-2,20.61,20.61,0,0,1,4-3.77,53.05,53.05,0,0,1,7.82-4.21,60.65,60.65,0,0,0-7.67,4.43,19.9,19.9,0,0,0-3.87,3.74,7.3,7.3,0,0,0-1,1.89,1.5,1.5,0,0,0,.34,1.78h0a2.18,2.18,0,0,0,2.34-.21c.44-.26,2.54-1.77,3-2.05a34.82,34.82,0,0,1,6.47-3.18,40.56,40.56,0,0,0-6.31,3.49c-.43.28-2.5,1.76-2.95,2a2.54,2.54,0,0,1-2.6.33,4.07,4.07,0,0,0-1.12,1.46,3.3,3.3,0,0,0-.36,1.4,1.69,1.69,0,0,0,.43,1.25h0a1.55,1.55,0,0,0,1.62.11,6.57,6.57,0,0,0,1.66-.91,27.84,27.84,0,0,1,3.22-2.22,34.53,34.53,0,0,1,3.46-1.82l3.59-1.54-3.54,1.65a32.4,32.4,0,0,0-3.39,1.92,27.63,27.63,0,0,0-3.13,2.3,7,7,0,0,1-1.72,1,2.2,2.2,0,0,1-1.71.05,6.9,6.9,0,0,0-.77,1.17c-.47.78.37,1.55,1.24,1.7a3.48,3.48,0,0,0,2.56-.35c.81-.42,1.72-.94,2.61-1.48,1.61-.9,1.94-1.12,3.6-1.9s3.33-1.53,5.06-2.14c-1.7.69-3.33,1.52-5,2.35s-1.93,1.06-3.48,2a6.58,6.58,0,0,0-1.38,1.75,1,1,0,0,0-.08,1,2.08,2.08,0,0,0,.83.68c1.39.65,2.63-.3,3.84-1.19a20,20,0,0,1,3-1.78,44.81,44.81,0,0,1,4.19-2.16A45.89,45.89,0,0,0,301.37,210.28Z" style="fill:#f0997a"></path><path d="M317,192.31c-1.94,3.06-7.27,3.48-10.79,2.64C310.22,197,314.71,197.18,317,192.31Z" style="fill:#f0997a"></path></g></g><path d="M351.19,168.24l-2.9,72.33s25.93-6.43,49.16-2.45,28.8,9.38,28.8,9.38l-15-118.65-53.63,1.63S351.19,139.27,351.19,168.24Z" style="fill:#ebebeb"></path><g id="freepik--Bottom--inject-68"><path d="M421.57,387.76c.24,5.25,1.19,8,3.55,10.79a11,11,0,0,0,11,3.15c4.16-1.09,8.49-4.13,9.46-8.54s.06-8.69-.92-12.11Z" style="fill:#263238"></path><path d="M435.52,302.18c-3-14.26-6.36-20.65-7-23.9,0,0-4.42-33.7-6.43-62.38-1-13.81-.61-23.1-9.85-39.12l-53.75,12.9c-.65,7.34-5.7,57.39-3.22,100.55,2.05,35.42,4.71,47,5,52.89.15,3.36.08,5.58-.07,10.25-.06,1.88-.23,3.43-1.35,4.62a32.71,32.71,0,0,1-6.09,4.71c-4.18,2.71-6.1,4.15-10.88,5.82a11.11,11.11,0,0,0-2.66,1.16,2.92,2.92,0,0,0-1.43,2.25c0,1.27,1.18,2.26,2.39,2.89,4.32,2.23,9.73,1.81,14.46.44s9.13-3.6,13.89-4.9c3.29-.89,6.78-1.34,9.8-2.85a4.77,4.77,0,0,0,2.36-2.05,4.85,4.85,0,0,0,.23-2.51c-.36-3.69-.76-4.86-.67-8.59.09-3.53.65-10.07.95-13.6.25-3,4.12-24.32,3.53-37.52a81.74,81.74,0,0,1,.43-12.09l4.78-46.88c2.18,7.84,10.28,30.53,12.81,40.89,3.09,12.67,4.76,28,11.2,51.16,1.81,6.53,5.17,14.4,6,18.35.35,5,2.24,18.12,4.7,23.64,3.75,8.38,15.19,8.1,16.16.84.81-6.19-3.45-22.36-3.63-26.41S439,318.81,435.52,302.18Z" style="fill:#ffbda7"></path><path d="M438.85,357.44c.92,5.22,1.71,9.18,2.32,12.2,1.73,5.16,2.41,7.65,3.38,11,1.6,5.48,1.29,10.39-.43,13.32-2.56,4.36-12.89,8.86-18.33,3.25-4.44-4.58-4.26-6.76-4.25-13.57,0-2.13,0-4.06,0-5.88-.14-6.09-.24-7.27-1.27-11.13-.58-2.2,0-5.56-.51-7.9-.51-2.54-.72-3.65.16-4.05,0,0,.45,3.26,1,5.6.52,2.16.93,4.35,1.42,6.51.61,2.66,1.12,5.34,2,8,.09.29.25.63.58.67s.65-.4.68-.78a1.49,1.49,0,0,1,.42-1.19,5.18,5.18,0,0,1,1.48-.81,15.12,15.12,0,0,1,3.27-.77,15.44,15.44,0,0,1,4.84-.19,2.91,2.91,0,0,1,1.32.5c.35.27.47.65.77.94a.71.71,0,0,0,.9.14.71.71,0,0,0,.21-.46,8.06,8.06,0,0,0,.06-1.84A95.89,95.89,0,0,0,438,360.8a44.69,44.69,0,0,1-.82-8.06A9.68,9.68,0,0,1,438.85,357.44Z" style="fill:#37474f"></path><path d="M384,366.5l-54.8,10.76a3.45,3.45,0,0,0,.43,3.45c2,2.28,8.74,5.35,17.09,4.43a31.85,31.85,0,0,0,16-6.32A23.59,23.59,0,0,1,367.8,376c2-.8,4.91-.84,7-1.1a42.17,42.17,0,0,0,5.52-1.42,11.84,11.84,0,0,0,3.68-1.78,12.61,12.61,0,0,0,.25-2.81C384.21,368.19,384.09,367.19,384,366.5Z" style="fill:#263238"></path><path d="M371.35,361.69c1.72-1.82,4-2.74,6.32-3.71,2-.82,2.5-1.58,2.56-3.62a3,3,0,0,1,1.86.19,2.35,2.35,0,0,1,.68,1.75c.14,1.53.34,2.24.62,3.83.6,3.51,1.48,4.62.89,8.75-2.45,2.94-10,4.35-14.09,4.83-6.35.76-11.46,5.77-16.25,7.26-8.78,2.73-17.38,1.26-20.71-.32-3.86-1.82-6-4.84-2.86-7,1.94-1.34,12.93-6.65,14.9-7.67,1.57-.8,3.07-1.74,4.6-2.6a2.53,2.53,0,0,1,.83-.35,2.67,2.67,0,0,1,1.05.1,31.43,31.43,0,0,1,5.61,1.82c.63.28,1.3.64,1.49,1.25.34,1.05-1.89,2.9-.54,3.24s3.28-1.17,4.24-1.66c3.15-1.59,6.36-3.38,8.68-5.94Z" style="fill:#37474f"></path><path d="M358.59,174.19l-.56,5.33c-5.18,29.5-5.66,68.58-5.11,80.46,1.63,35,6.25,96.76,6.25,96.76s1.43,3.43,11.63,4.22c7.85.61,12.41-2,12.41-2s3.64-41.85,4.22-52a98.35,98.35,0,0,0-.28-13,83.2,83.2,0,0,1,.19-16.17l2.75-29.9s10.16,41.41,11.14,46.45c4.91,25.28,16.78,72.15,16.78,72.15s8.29,2.13,15.76.85,9.15-3.86,9.15-3.86-4.62-52.71-5.78-62.93c-1.57-13.66-3-20-4.08-25.61-1.24-6.57-1.84-31.38-2.69-45.81-.58-9.84-1-17.32-2.21-24.54-2.55-15.11-10.07-24.21-12.92-29.77l-.45-3C406.36,178.51,374.38,182.62,358.59,174.19Z" style="fill:#455a64"></path><path d="M390.09,248l-8-28.22s-10.33-1.93-15.42-7.38c0,0,1.15,6.89,11.86,10.4l7.52,24.66,1.41,29Z" style="fill:#37474f"></path></g><g id="freepik--Top--inject-68"><g id="freepik--Chest--inject-68"><path d="M402.08,102.59l14,3.74c2.79.94-.36,17.42.42,36.26.8,19.36,6.29,50.62,6.29,50.62s-13.11,5.49-36.64,5.1c-23.24-.39-30.17-7.64-30.17-7.64l3.11-22.85-.29-17.32s-6.87-9.66-2.23-21.15,21.83-25.74,21.83-25.74l5-.74Z" style="fill:#D144C9"></path><path d="M403.49,148.48a15.61,15.61,0,0,1-13.74,6.77,15.44,15.44,0,0,1-12.35-7.49s1.61,9.7,13.23,9.91S403.49,148.48,403.49,148.48Z" style="opacity:0.15"></path></g><path d="M385,102.59c-5.79,4.83-13.46,11.09-18.8,18.07-10.8,14.13-14.09,26-14.95,42.43-.17-24.53-1-35.45,21.73-56.39A80.23,80.23,0,0,1,385,98Z" style="fill:#e0e0e0"></path><path d="M409.14,248.43c-4.06,0-7.22-.29-8.39-.41-.25-7.49-3.26-96.41-2.7-112.17.37-10.56,3.15-20.65,5.17-28,.92-3.34,1.69-6.13,2-8.26a14.19,14.19,0,0,0,4.07,3.85c2.65,1.54,10.53,4.23,12.1,4.77a64.44,64.44,0,0,1,3,23.86,106,106,0,0,1-2.58,15.89c-1.93,8.93-3.75,17.37-1,25.69.79,2.42,1.55,4.63,2.28,6.75,4.71,13.66,8.11,23.54,10.26,63.14-7.35,4-17.23,4.91-24.27,4.91Z" style="fill:#f0f0f0"></path><path d="M405.59,100.91a13.92,13.92,0,0,0,3.46,3c2.57,1.49,9.89,4,11.94,4.72A64,64,0,0,1,423.91,132a106.87,106.87,0,0,1-2.57,15.81c-1.95,9-3.78,17.52-1,26,.79,2.43,1.55,4.64,2.29,6.77,4.67,13.57,8.06,23.4,10.21,62.61-7.21,3.85-16.81,4.68-23.68,4.68-3.56,0-6.41-.23-7.83-.36-.35-10.27-3.23-96.18-2.69-111.63.37-10.49,3.14-20.55,5.16-27.89.75-2.74,1.4-5.11,1.81-7.07m-.7-2.94c-.43,6.07-6.83,21.29-7.41,37.86s2.72,112.7,2.72,112.7a78.3,78.3,0,0,0,8.94.47c7.22,0,17.38-.89,24.87-5.16-2.5-46.18-6.73-52.4-12.6-70.39-4.21-12.89,2.7-26.2,3.64-41.37a63.9,63.9,0,0,0-3.16-24.35s-9.4-3.14-12.26-4.81a15.1,15.1,0,0,1-4.74-5Z" style="fill:#ebebeb"></path><path d="M404.16,91.57a168,168,0,0,0,10.23-16.5c3.51-6.79,3.76-16.63-2.77-18.54-.62-7.69-10.89-17.26-29.33-13.45-18.08,3.73-16.81,17.72-15.53,21.84S372.27,73,372.27,73Z" style="fill:#263238"></path><path d="M369.87,68.4c-.28-6.81,2-10.86,3.73-12.16,3.58-2.68,6.53-2.13,11.08,1.77,3.45-3.33,9.45-3.83,12.46-1,1.81,1.68,3.57,5.13,3.14,7.07-1.86,7.55.41,9.5,2.25,10.42-1.3,4.1.88,4.59,1.81,2.47,1.27-2.91,5.33-3.75,7.86-.62s.51,8.64-2.45,10.81c-2.79,2.05-5.38.67-5.56,0-.05,1.65,0,16.24,0,16.24s-10.11,8.94-23.13,12.67c-.41-5.32,0-7.64,2.47-11.77v-7a16.3,16.3,0,0,1-7.85-1.82c-3.9-1.8-7.05-5.73-7-19C368.65,72.6,370.05,70.46,369.87,68.4Z" style="fill:#ffbda7"></path><path d="M373.17,65.52l4.77-.92a2.34,2.34,0,0,0-2.76-2A2.56,2.56,0,0,0,373.17,65.52Z" style="fill:#263238"></path><path d="M394.55,65.93,390,64.21a2.34,2.34,0,0,1,3.06-1.47A2.55,2.55,0,0,1,394.55,65.93Z" style="fill:#263238"></path><path d="M389.09,83l-6.8,2.12a3.43,3.43,0,0,0,4.34,2.41A3.74,3.74,0,0,0,389.09,83Z" style="fill:#b16668"></path><path d="M385.07,87.61a3.19,3.19,0,0,1,3.29-3,3.26,3.26,0,0,1,.77.13,3.73,3.73,0,0,1-2.5,2.82A3.47,3.47,0,0,1,385.07,87.61Z" style="fill:#ffa8a7"></path><polygon points="384.12 68.6 382.73 81.54 376.31 79.58 384.12 68.6" style="fill:#f0997a"></polygon><path d="M383.52,97.22c4.68-.16,15.21-2.7,17.78-8.84,0,0-.46,4.41-6.26,7.71-4.57,2.6-11.51,3.23-11.51,3.23Z" style="fill:#f0997a"></path><path d="M388.53,70.78a2.07,2.07,0,1,0,2-2.18A2.08,2.08,0,0,0,388.53,70.78Z" style="fill:#263238"></path><path d="M373.68,71.06a2.07,2.07,0,1,0,1.64-2.42A2.06,2.06,0,0,0,373.68,71.06Z" style="fill:#263238"></path><path d="M413.49,104.62c-2.32-1-4.93-3.92-6.3-5.53s-2.13-3.13-3-3.12v3.14s-7.11,16.83-7.08,31.44h0c-.17,10,.41,22.7.41,22.7,3-7.09,10.49-19.65,10.49-19.65l-3.83-9.17C406.58,115.37,411.81,109.46,413.49,104.62Z" style="fill:#e0e0e0"></path><path d="M440.89,131c-5-14-4.82-18.38-19-23.22-9.7,11.85-3.22,32.84-3.22,32.84l9.14,25.82,24.6,5.52C451.43,163.54,446.82,147.56,440.89,131Z" style="fill:#f5f5f5"></path></g><g id="freepik--Syringe--inject-68"><path d="M235.75,259.68c1.85,10,11.1,20.8,20.66,24.19,4.78,1.69,8.73,1.2,11.26-.95h0l109-93.11,0-.05c2.14-2.22,3-5.83,2.18-10.44-1.85-10-11.1-20.81-20.66-24.2-4.43-1.56-8.13-1.24-10.66.52l0,0-109,93.11C235.92,250.86,234.82,254.69,235.75,259.68Z" style="fill:#D144C9"></path><path d="M235.75,259.68c1.85,10,11.1,20.8,20.66,24.19,4.78,1.69,8.73,1.2,11.26-.95h0l109-93.11,0-.05c2.14-2.22,3-5.83,2.18-10.44-1.85-10-11.1-20.81-20.66-24.2-4.43-1.56-8.13-1.24-10.66.52l0,0-109,93.11C235.92,250.86,234.82,254.69,235.75,259.68Z" style="fill:#fff;opacity:0.7000000000000001"></path><path d="M270.38,271.94c1.85,10-4.41,15.32-14,11.93s-18.81-14.22-20.66-24.19,4.4-15.32,14-11.93S268.53,262,270.38,271.94Z" style="fill:#D144C9"></path><path d="M270.38,271.94c1.85,10-4.41,15.32-14,11.93s-18.81-14.22-20.66-24.19,4.4-15.32,14-11.93S268.53,262,270.38,271.94Z" style="fill:#fff;opacity:0.8"></path><path d="M458.69,111.1c1.85,10-4.41,15.32-14,11.93s-18.81-14.21-20.66-24.19,4.4-15.31,14-11.93S456.84,101.13,458.69,111.1Z" style="fill:#D144C9"></path><path d="M458.69,111.1c1.85,10-4.41,15.32-14,11.93s-18.81-14.21-20.66-24.19,4.4-15.31,14-11.93S456.84,101.13,458.69,111.1Z" style="fill:#fff;opacity:0.7000000000000001"></path><path d="M431.75,113.69a32.21,32.21,0,0,0,13,9.34c9.56,3.39,15.82-2,14-11.93a32.5,32.5,0,0,0-7.2-14.27Z" style="fill:#D144C9;opacity:0.2"></path><ellipse cx="439.35" cy="106.7" rx="12.99" ry="22.5" transform="translate(35.97 310.9) rotate(-40.5)" style="fill:#D144C9"></ellipse><ellipse cx="439.35" cy="106.7" rx="12.99" ry="22.5" transform="translate(35.97 310.9) rotate(-40.5)" style="fill:#fff;opacity:0.8"></ellipse><path d="M357.43,166.86c-1,.68-1.46,2-1.13,3.8a11.73,11.73,0,0,0,6.89,8.06,3.7,3.7,0,0,0,3.75-.32h0l77.28-66h0a3.73,3.73,0,0,0,.9-3.66,11.71,11.71,0,0,0-6.89-8.06c-1.72-.61-3.09-.35-3.92.52Z" style="fill:#D144C9"></path><path d="M357.43,166.86c-1,.68-1.46,2-1.13,3.8a11.73,11.73,0,0,0,6.89,8.06,3.7,3.7,0,0,0,3.75-.32h0l77.28-66h0a3.73,3.73,0,0,0,.9-3.66,11.71,11.71,0,0,0-6.89-8.06c-1.72-.61-3.09-.35-3.92.52Z" style="fill:#fff;opacity:0.7000000000000001"></path><g style="opacity:0.30000000000000004"><path d="M356.21,169.85a5.9,5.9,0,0,0,.09.81,6.56,6.56,0,0,0,.23.84L439,101a6.33,6.33,0,0,0-.8-.36,6.62,6.62,0,0,0-.78-.22Z" style="fill:#fff"></path><path d="M357.06,172.87a11.83,11.83,0,0,0,1.18,1.94L442,103.24h0c-.26-.26-.53-.51-.8-.74l-.11-.09c-.26-.22-.54-.44-.82-.64h0Z" style="fill:#fff"></path></g><path d="M442.48,108.73c-.59,1.67-5.12,5.12-9.75,9.07L362,178.2a8.69,8.69,0,0,0,1.17.52,3.7,3.7,0,0,0,3.75-.32h0l77.28-66a3.73,3.73,0,0,0,.9-3.66,11.71,11.71,0,0,0-6.89-8.06,2.26,2.26,0,0,0-.37-.11c-.88-.16-1.46-.22-1.46-.22C439.08,101,443.36,106.27,442.48,108.73Z" style="fill:#D144C9;opacity:0.2"></path><path d="M356.3,170.66a11.73,11.73,0,0,0,6.89,8.06,3.7,3.7,0,0,0,3.75-.32h0l8.74-7.46A38.28,38.28,0,0,0,366,159.57l-8.54,7.29C356.44,167.54,356,168.86,356.3,170.66Z" style="fill:#D144C9;opacity:0.15"></path><g style="opacity:0.30000000000000004"><path d="M356.21,169.85a5.9,5.9,0,0,0,.09.81,6.56,6.56,0,0,0,.23.84l11.7-10c-.36-.34-.73-.67-1.1-1Z" style="fill:#fff"></path><path d="M370.78,164.1c-.5-.56-1-1.11-1.55-1.63l-12.17,10.4a11.83,11.83,0,0,0,1.18,1.94Z" style="fill:#fff"></path></g><path d="M362,178.2a8.69,8.69,0,0,0,1.17.52,3.7,3.7,0,0,0,3.75-.32h0l8.74-7.46c-.54-1-1.15-1.94-1.79-2.88Z" style="opacity:0.05"></path><path d="M343.46,178.79c-1,.68-1.46,2-1.13,3.8a11.73,11.73,0,0,0,6.89,8.06,3.7,3.7,0,0,0,3.75-.32h0l14-11.93h0a3.71,3.71,0,0,0,.9-3.65,11.72,11.72,0,0,0-6.88-8.07c-1.72-.61-3.1-.35-3.93.52Z" style="fill:#D144C9"></path><path d="M343.46,178.79c-1,.68-1.46,2-1.13,3.8a11.73,11.73,0,0,0,6.89,8.06,3.7,3.7,0,0,0,3.75-.32h0l14-11.93h0a3.71,3.71,0,0,0,.9-3.65,11.72,11.72,0,0,0-6.88-8.07c-1.72-.61-3.1-.35-3.93.52Z" style="fill:#fff;opacity:0.5"></path><path d="M343.46,178.79c-1,.68-1.46,2-1.13,3.8a11.73,11.73,0,0,0,6.89,8.06,3.7,3.7,0,0,0,3.75-.32h0l14-11.93h0a3.71,3.71,0,0,0,.9-3.65,11.72,11.72,0,0,0-6.88-8.07c-1.72-.61-3.1-.35-3.93.52Z" style="opacity:0.05"></path><g style="opacity:0.30000000000000004"><path d="M361.75,167c-.26-.13-.53-.26-.79-.36s-.53-.16-.79-.22l-13.26,11.33.95,1.12Z" style="fill:#fff"></path><path d="M363,167.78l-13.54,11.56,1.45,1.71,13.82-11.8A11.33,11.33,0,0,0,363,167.78Z" style="fill:#fff"></path></g><path d="M367.84,174.75a8.13,8.13,0,0,0-.33-1.24l-16.34,14a8.55,8.55,0,0,0,1.17.52,3.74,3.74,0,0,0,3.76-.31l10.84-9.27h0A3.71,3.71,0,0,0,367.84,174.75Z" style="opacity:0.1"></path><path d="M350.89,199.68c8,2.82,13.19-1.62,11.65-9.93s-9.25-17.34-17.22-20.16-13.19,1.62-11.65,9.93S342.92,196.86,350.89,199.68Z" style="fill:#263238"></path><path d="M349.65,200.75c8,2.82,13.18-1.63,11.64-9.94s-9.25-17.33-17.22-20.16-13.18,1.62-11.64,9.94S341.68,197.93,349.65,200.75Z" style="fill:#37474f"></path><path d="M240.89,251.55c-1.94,1.66-2.69,4.7-1.79,8.75,1.81,8.09,9.51,17.11,17.22,20.16,3.86,1.52,7,1.26,8.92-.39h0L358,200.88h0c2.11-1.8,3-5,2.26-9.15-1.54-8.3-9.25-17.33-17.22-20.16-4-1.41-7.28-1-9.39.8Z" style="fill:#fff"></path><path d="M270.38,271.94c-1.85-10-11.1-20.81-20.67-24.19a17.68,17.68,0,0,0-3.36-.86l-5.46,4.66c-1.94,1.66-2.69,4.7-1.79,8.75,1.81,8.09,9.51,17.11,17.22,20.16,3.86,1.52,7,1.26,8.92-.39l5.46-4.67A18.72,18.72,0,0,0,270.38,271.94Z" style="fill:#D144C9"></path><path d="M270.38,271.94c-1.85-10-11.1-20.81-20.67-24.19a17.68,17.68,0,0,0-3.36-.86l-5.46,4.66c-1.94,1.66-2.69,4.7-1.79,8.75,1.81,8.09,9.51,17.11,17.22,20.16,3.86,1.52,7,1.26,8.92-.39l5.46-4.67A18.72,18.72,0,0,0,270.38,271.94Z" style="fill:#fff;opacity:0.2"></path><path d="M348.65,201.6c4,1.41,7.28,1,9.38-.79s3-5,2.26-9.15c-1.54-8.3-9.25-17.33-17.22-20.16-4-1.41-7.28-1-9.39.8s-3,5-2.25,9.14-.33,11.4,2.79,15.05S344.66,200.19,348.65,201.6Z" style="fill:#455a64"></path><path d="M355.67,195.85c-3.25,1.92-7.74-.46-13.18.55-5.27,1-7.82.31-9.33-1.62a6.92,6.92,0,0,0,1.06,1.71c3.11,3.65,10.44,3.7,14.43,5.11s7.28,1,9.38-.79,3-5,2.26-9.15c-1.54-8.3-9.19-17.35-17.28-20.18C359.59,181.39,359.09,193.83,355.67,195.85Z" style="opacity:0.2"></path><path d="M348.65,201.6c4,1.41,7.28,1,9.38-.79s3-5,2.26-9.15c-1.54-8.3-9.25-17.33-17.22-20.16-4-1.41-7.28-1-9.39.8s-3,5-2.25,9.14-.33,11.4,2.79,15.05S344.66,200.19,348.65,201.6Z" style="fill:#D144C9;opacity:0.5"></path><path d="M345.67,172.77a20.41,20.41,0,0,0-2.68-1.2,14.78,14.78,0,0,0-3.21-.75l-97.5,83.28,3.45,4Z" style="fill:#fff;opacity:0.30000000000000004"></path><path d="M350.21,175.83c-.76-.63-1.54-1.2-2.34-1.74l-99,84.52,1.84,2.15Z" style="fill:#fff;opacity:0.30000000000000004"></path><path d="M345.83,172.84c10.91,8,9.59,19.69,5.05,23.56l-88,75.2-2.06,9.84a6.44,6.44,0,0,0,4.46-1.37L358,200.88c2.11-1.8,3-5,2.26-9.15C358.86,184.43,352.76,176.51,345.83,172.84Z" style="opacity:0.1"></path><path d="M256.32,280.46c7.71,3,12.5-1,10.7-9.13s-9.5-17.12-17.22-20.16-12.5,1-10.7,9.13S248.61,277.41,256.32,280.46Z" style="fill:#D144C9"></path><path d="M256.32,280.46c7.71,3,12.5-1,10.7-9.13s-9.5-17.12-17.22-20.16-12.5,1-10.7,9.13S248.61,277.41,256.32,280.46Z" style="fill:#fff;opacity:0.30000000000000004"></path><path d="M236.44,265.21c-1.26,1.08-1.81,3-1.35,5.49.93,5,5.55,10.4,10.33,12.09,2.39.85,4.37.6,5.64-.47h0l9.31-8h0c1.26-1.08,1.81-3,1.35-5.49-.93-5-5.55-10.4-10.33-12.09-2.39-.85-4.37-.6-5.63.47h0l-9.32,8Z" style="fill:#D144C9"></path><path d="M236.44,265.21c-1.26,1.08-1.81,3-1.35,5.49.93,5,5.55,10.4,10.33,12.09,2.39.85,4.37.6,5.64-.47h0l9.31-8h0c1.26-1.08,1.81-3,1.35-5.49-.93-5-5.55-10.4-10.33-12.09-2.39-.85-4.37-.6-5.63.47h0l-9.32,8Z" style="fill:#fff;opacity:0.7000000000000001"></path><path d="M252,257.06c-.21-.09-.42-.21-.63-.28a8.45,8.45,0,0,0-1.89-.45L236.19,267.7l1.42,1.67Z" style="fill:#fff;opacity:0.4"></path><path d="M254.72,258.57a15,15,0,0,0-1.4-.89l-14,12,1,1.21Z" style="fill:#fff;opacity:0.4"></path><path d="M258,271.06l-7.26,6.19-3.68,6a4.83,4.83,0,0,0,4-.89l9.31-8c1.26-1.08,1.81-3,1.35-5.49-.93-5-5.55-10.4-10.33-12.09a8.45,8.45,0,0,0-1.89-.45C257.22,259.11,260.85,268.62,258,271.06Z" style="fill:#D144C9;opacity:0.2"></path><path d="M245.42,282.79c4.79,1.7,7.91-1,7-6s-5.55-10.41-10.33-12.1-7.91,1-7,6S240.64,281.1,245.42,282.79Z" style="fill:#D144C9"></path><path d="M245.42,282.79c4.79,1.7,7.91-1,7-6s-5.55-10.41-10.33-12.1-7.91,1-7,6S240.64,281.1,245.42,282.79Z" style="fill:#fff;opacity:0.8"></path><path d="M230.36,280.27a8.26,8.26,0,0,0,4.87,5.7,2.62,2.62,0,0,0,2.66-.23h0l9.3-7.94a2.63,2.63,0,0,0,.64-2.59,8.24,8.24,0,0,0-4.87-5.7,2.62,2.62,0,0,0-2.65.22h0L231,277.68h0A2.62,2.62,0,0,0,230.36,280.27Z" style="fill:#D144C9"></path><path d="M230.36,280.27a8.26,8.26,0,0,0,4.87,5.7,2.62,2.62,0,0,0,2.66-.23h0l9.3-7.94a2.63,2.63,0,0,0,.64-2.59,8.24,8.24,0,0,0-4.87-5.7,2.62,2.62,0,0,0-2.65.22h0L231,277.68h0A2.62,2.62,0,0,0,230.36,280.27Z" style="fill:#fff;opacity:0.7000000000000001"></path><path d="M244.36,270.24a5.68,5.68,0,0,0-1.4-.73c-.1,0-.2-.05-.3-.08l-10.24,8.74,1.12,1.31Z" style="fill:#fff;opacity:0.4"></path><path d="M246.08,271.77a10.68,10.68,0,0,0-.89-.89l-10.34,8.84.81.95Z" style="fill:#fff;opacity:0.4"></path><path d="M241.73,269.29a5.74,5.74,0,0,1,4.17,4.59c.26,2.14-.85,2.86-2.46,4.24l-7.25,6.19-.23,1.85a2.31,2.31,0,0,0,1.93-.42h0l9.3-7.94a2.63,2.63,0,0,0,.64-2.59,8.24,8.24,0,0,0-4.87-5.7A3.64,3.64,0,0,0,241.73,269.29Z" style="fill:#D144C9;opacity:0.2"></path><path d="M235.23,286c2.25.8,3.73-.46,3.29-2.81a8.31,8.31,0,0,0-4.87-5.7c-2.25-.8-3.73.46-3.29,2.81A8.26,8.26,0,0,0,235.23,286Z" style="fill:#D144C9"></path><path d="M235.23,286c2.25.8,3.73-.46,3.29-2.81a8.31,8.31,0,0,0-4.87-5.7c-2.25-.8-3.73.46-3.29,2.81A8.26,8.26,0,0,0,235.23,286Z" style="fill:#fff;opacity:0.8"></path><path d="M234.42,282.65c-12.69,11.11-57.8,48.91-70.41,59.43-.63.52-.81.32-.19-.22,12.36-10.81,56.74-49.48,69.69-60.27A1,1,0,0,1,234.42,282.65Z" style="fill:#455a64"></path><path d="M239,259.49c-.65-7.46,4.71-9.27,11.42-6.82,6.55,2.39,13.81,11.14,15.38,14.85-2.95-6.94-9.44-13.78-16-16.35C242.36,248.22,237.66,251.94,239,259.49Z" style="fill:#fff;opacity:0.5"></path><path d="M360.93,156.33c8.51,4.3,16.22,14,17.89,23,.85,4.62,0,8.23-2.18,10.45l0,.05-109,93.11c2.53-2.16,3.64-6,2.71-11l100.72-86C376.37,181.41,375.89,169.12,360.93,156.33Z" style="fill:#D144C9;opacity:0.2"></path><path d="M266.58,262.42c-4-6.6-10.35-12.37-16.87-14.67-9.56-3.39-15.81,1.95-14,11.93a23.36,23.36,0,0,0,.66,2.62c-1.28-5.06-.44-11.9,5.39-13.86S258.4,250.82,266.58,262.42Z" style="fill:#fff;opacity:0.30000000000000004"></path><path d="M238.45,248.71l109-93.11,0,.05c2.53-1.77,6.23-2.1,10.66-.53.2.07.4.16.61.25-7.81-2-10.81,1.94-16.46,6.77L243.2,246.79A8.47,8.47,0,0,0,238.45,248.71Z" style="fill:#fff;opacity:0.4"></path><path d="M235.09,270.7c0,.14.09.29.12.44-.31-2.57.64-5.88,4.29-5.9s11.45,4.72,13,14.07a8.17,8.17,0,0,0-.11-2.48c-.93-5-5.55-10.41-10.33-12.1S234.17,265.71,235.09,270.7Z" style="fill:#fff;opacity:0.30000000000000004"></path><path d="M230.36,280.27a5.91,5.91,0,0,0,.49,1.45c-.42-1.49-.21-3.49,1.3-3.87,1.3-.32,4.95.89,6.41,5.73a3.13,3.13,0,0,0,0-.42,8.31,8.31,0,0,0-4.87-5.7C231.4,276.66,229.92,277.92,230.36,280.27Z" style="fill:#fff;opacity:0.30000000000000004"></path><path d="M422,100.57a20.63,20.63,0,0,0,.54,2.23c-3.92-14.31,9.31-17,19.71-9.34,10.6,7.79,14.71,20.17,14.6,24.31a16.86,16.86,0,0,0-.22-4.94c-1.85-10-11.1-20.81-20.67-24.19S420.19,90.59,422,100.57Z" style="fill:#fff;opacity:0.4"></path></g><g id="freepik--arm--inject-68"><path d="M429,167.35c-4,1.93-17.78,8.42-24.31,8.89-4.45.31-7.31-3.4-10.14-6.27-3.72-3.79-4.37-5.39-5.59-5.72-.48-.13-1.11,1-1.23,1.32a5,5,0,0,0-.11,2.24c.24,2.06,1.61,3.82,2.29,5.76.39,1.11-.25,1.73-1.29,1.89a8,8,0,0,1-1.95.06,15,15,0,0,1-4.05-.77c-2.32-.66-4.57-1.7-6.91-2.37a5.54,5.54,0,0,0-1.79-.29,2.1,2.1,0,0,0-1.6.75,2.93,2.93,0,0,1-.42.56,1.91,1.91,0,0,1-.7.26,3.68,3.68,0,0,0-2.43,1.39,2.26,2.26,0,0,0,.29,2.76c.41.41,1,.68,1.21,1.21a4.74,4.74,0,0,1,.07,1.46c.07,1,.86,1.82,1.35,2.72s.7,2,1.19,3a8.26,8.26,0,0,0,3.33,3.14c4,2.39,7.06,3,11.62,3.87a49.74,49.74,0,0,0,9.75.78c2.08,0,4.15-.18,6.22-.35,7.71-.66,17.14-2.87,25.2-5.3Z" style="fill:#ffbda7"></path><path d="M452.41,171.91l-24.6-5.52-18.14,8.87a10.51,10.51,0,0,1,5.13,5.09,18.43,18.43,0,0,1,.33,11.93c2.31-.41,16.34-4.47,21-6s12.14-5,14-6.67S452.63,175.85,452.41,171.91Z" style="fill:#f5f5f5"></path><path d="M373.54,184.14a26.87,26.87,0,0,0,3.63,1.92c1.24.58,2.55,1,3.81,1.6a16.1,16.1,0,0,1-4-1.14A10,10,0,0,1,373.54,184.14Z" style="fill:#f0997a"></path><path d="M384.42,180.76a46.51,46.51,0,0,1-6.33-2.5c-2-.89-3.88-1.91-5.79-2.91,0,0-.05.05,0,.06a26.92,26.92,0,0,0,6,3.51,38.08,38.08,0,0,0,6.1,1.88S384.44,180.76,384.42,180.76Z" style="fill:#f0997a"></path><path d="M384,185.11a47.16,47.16,0,0,1-6.34-2.5c-.78-.35-1.66-.79-3-1.45a25.46,25.46,0,0,1-3.44-2.09,2.38,2.38,0,0,0-.6-.34c0,.1.07.19.15.25a18,18,0,0,0,4.35,2.94c.91.48,1.82,1,2.76,1.36a39.12,39.12,0,0,0,6.1,1.88S384,185.12,384,185.11Z" style="fill:#f0997a"></path></g></g></g><g id="freepik--speech-bubble--inject-68"><g id="freepik--speech-bubble--inject-68"><g id="freepik--speech-bubble--inject-68"><path d="M236.54,148.24a102,102,0,1,1-102-102A102.12,102.12,0,0,1,236.54,148.24Z" style="fill:#fff"></path><path d="M134.53,40.49a107.75,107.75,0,0,0-23,213l18.54,41.32a4.86,4.86,0,0,0,8.87,0l18.54-41.32a107.74,107.74,0,0,0-23-213Zm0,209.75a102,102,0,1,1,102-102A102.11,102.11,0,0,1,134.53,250.24Z" style="fill:#37474f"></path></g><g id="freepik--egg-fertilization--inject-68"><g id="freepik--Egg--inject-68"><path d="M68.06,174.8a6.5,6.5,0,0,0,.22.62c2.21,5.38,9,7,13.16,11.06,5.15,5.05,6.14,13.87,12.46,17.36,4.39,2.41,10.06,1.4,14.42,3.86,3.14,1.77,5.16,5.1,8.33,6.8,5.86,3.14,13.17-.3,19.67,1.07,3.23.68,6.16,2.54,9.44,2.88,7.54.78,11.4-5.74,17.48-8.5,3.74-1.68,7.67-2.89,11.55-4.2a21.72,21.72,0,0,0,6.21-2.88c3.56-2.7,5-7.3,5.94-11.68.58-2.8,1-5.76,2.79-8a23,23,0,0,1,3.76-3.4,21.73,21.73,0,0,0,7.21-10c2.33-7.43-.76-15.65,1.09-23.21.62-2.52,1.78-4.93,2-7.52.39-5.49-3.56-10.18-6.35-14.93a37.6,37.6,0,0,1-4.71-12.32c-.65-3.62-1.36-5.52-4.34-8C183.88,100,177,98.4,173.19,94.11c-4.11-4.64-6.68-10-13.1-11.91-6.14-1.87-13,.45-19.1-1.43-5.83-1.78-10.79-4.13-17-2-4.11,1.4-6.36,4.72-9.93,6.78-3.38,1.94-7.67,2-11.45,2.18-4.76.23-10,.82-13.22,4.36s-4,9.08-7.2,12.88c-3.92,4.68-11.16,8.1-12.31,14.47-.69,3.78.9,7.68.32,11.47-.84,5.45-6,9.65-6.25,15.14-.27,5,3.58,9.41,4.26,14.41C68.86,165.23,66.59,170.3,68.06,174.8Z" style="fill:#D144C9"></path><circle cx="134.54" cy="148.24" r="58.64" transform="translate(-37.55 250.51) rotate(-78.5)" style="fill:#fff"></circle><path d="M177.17,120.53a27.6,27.6,0,0,0-5.57-8.77C157,95.69,134.39,93.58,114.77,100.1c-6.12,2-12.64,6.64-17.17,11.07C87.15,121.38,82.5,133.69,82,147.35a47.76,47.76,0,0,0,7.67,28.12c7.73,11.46,19.43,20.44,32.85,23.74,20.25,5,43.33-3.38,53.22-19.68a27.13,27.13,0,0,0,3.39-12.63c-.16-4.37-2-8.47-3.62-12.55s-2.87-8.55-1.82-12.8c.7-2.85,2.41-5.35,3.47-8.09A17.6,17.6,0,0,0,177.17,120.53Z" style="fill:#D144C9"></path><path d="M177.17,120.53a27.6,27.6,0,0,0-5.57-8.77C157,95.69,134.39,93.58,114.77,100.1c-6.12,2-12.64,6.64-17.17,11.07C87.15,121.38,82.5,133.69,82,147.35a47.76,47.76,0,0,0,7.67,28.12c7.73,11.46,19.43,20.44,32.85,23.74,20.25,5,43.33-3.38,53.22-19.68a27.13,27.13,0,0,0,3.39-12.63c-.16-4.37-2-8.47-3.62-12.55s-2.87-8.55-1.82-12.8c.7-2.85,2.41-5.35,3.47-8.09A17.6,17.6,0,0,0,177.17,120.53Z" style="fill:#fff;opacity:0.6000000000000001"></path><path d="M125.28,123c-1.14-3.35-4-6.94-7.12-8.16-8.13-3.17-18.92,5.51-18.08,13.9,1,10.4,14.44,15.78,22.68,6.4A12.22,12.22,0,0,0,125.28,123Z" style="fill:#D144C9;opacity:0.22"></path><g style="opacity:0.22"><path d="M114.78,130.84a3.25,3.25,0,0,0-4.68-.3c-1.61,1.4-1.8,3.57.09,4.75,2.29,1.44,6.55.27,5.49-3A3.42,3.42,0,0,0,114.78,130.84Z" style="fill:#D144C9"></path></g><g style="opacity:0.30000000000000004"><path d="M171.4,123.51a1.58,1.58,0,0,1-2.2-.44,1.59,1.59,0,1,1,2.2.44Z" style="fill:#D144C9"></path><path d="M162.34,111.71a1.58,1.58,0,0,1-2.2-.44,1.59,1.59,0,1,1,2.65-1.76A1.57,1.57,0,0,1,162.34,111.71Z" style="fill:#D144C9"></path><path d="M148.18,104.74a1.59,1.59,0,1,1,.45-2.21A1.59,1.59,0,0,1,148.18,104.74Z" style="fill:#D144C9"></path><path d="M133.68,103.25a1.59,1.59,0,1,1,.45-2.21A1.59,1.59,0,0,1,133.68,103.25Z" style="fill:#D144C9"></path><path d="M120.09,106a1.59,1.59,0,1,1,.45-2.21A1.59,1.59,0,0,1,120.09,106Z" style="fill:#D144C9"></path><path d="M107.29,112.57a1.59,1.59,0,0,1-1.76-2.65,1.59,1.59,0,1,1,1.76,2.65Z" style="fill:#D144C9"></path><path d="M98,121.18a1.59,1.59,0,1,1-1.76-2.65A1.59,1.59,0,0,1,98,121.18Z" style="fill:#D144C9"></path><path d="M92.28,132.56a1.59,1.59,0,1,1,.45-2.21A1.59,1.59,0,0,1,92.28,132.56Z" style="fill:#D144C9"></path><path d="M88.88,146.62a1.59,1.59,0,1,1,.45-2.21A1.59,1.59,0,0,1,88.88,146.62Z" style="fill:#D144C9"></path><path d="M91,159.91a1.59,1.59,0,0,1-1.76-2.65A1.59,1.59,0,1,1,91,159.91Z" style="fill:#D144C9"></path><path d="M96.42,175.13a1.59,1.59,0,1,1,.45-2.21A1.59,1.59,0,0,1,96.42,175.13Z" style="fill:#D144C9"></path><path d="M107.42,187.63a1.59,1.59,0,0,1-1.76-2.65,1.59,1.59,0,1,1,1.76,2.65Z" style="fill:#D144C9"></path><path d="M120.19,193.92a1.59,1.59,0,1,1,.45-2.2A1.59,1.59,0,0,1,120.19,193.92Z" style="fill:#D144C9"></path><path d="M135,196.4a1.59,1.59,0,1,1-1.76-2.65A1.59,1.59,0,1,1,135,196.4Z" style="fill:#D144C9"></path><path d="M149.85,193.2a1.58,1.58,0,0,1-2.2-.45A1.59,1.59,0,1,1,150.3,191,1.57,1.57,0,0,1,149.85,193.2Z" style="fill:#D144C9"></path><path d="M162.6,184.77a1.59,1.59,0,1,1-1.76-2.65,1.59,1.59,0,0,1,1.76,2.65Z" style="fill:#D144C9"></path><path d="M168.22,135.39A1.58,1.58,0,0,1,166,135a1.59,1.59,0,1,1,2.65-1.76A1.57,1.57,0,0,1,168.22,135.39Z" style="fill:#D144C9"></path><path d="M166.17,148.21a1.59,1.59,0,1,1,.44-2.21A1.6,1.6,0,0,1,166.17,148.21Z" style="fill:#D144C9"></path><path d="M168.86,160.74a1.59,1.59,0,1,1,.45-2.21A1.59,1.59,0,0,1,168.86,160.74Z" style="fill:#D144C9"></path><path d="M172,173.77a1.59,1.59,0,1,1,.45-2.21A1.59,1.59,0,0,1,172,173.77Z" style="fill:#D144C9"></path></g></g><path d="M53.14,117.91h-16a102.18,102.18,0,0,0-1.63,54.77H53.14a19.77,19.77,0,0,0,19.77-19.77V137.68A19.77,19.77,0,0,0,53.14,117.91Z" style="fill:#D144C9"></path><path d="M53.14,117.91h-16a102.18,102.18,0,0,0-1.63,54.77H53.14a19.77,19.77,0,0,0,19.77-19.77V137.68A19.77,19.77,0,0,0,53.14,117.91Z" style="fill:#fff;opacity:0.8"></path><path d="M65.88,146.66c-3.48,1.19-6.58,3.41-10.15,4.28-4.08,1-8.34.15-12.51-.39a105.71,105.71,0,0,0-10.81-.75,102.1,102.1,0,0,0,2.91,22.88H53.14a19.77,19.77,0,0,0,19.77-19.77v-6.46A11.29,11.29,0,0,0,65.88,146.66Z" style="fill:#D144C9;opacity:0.2"></path><path d="M53.14,117.91h-16a101.64,101.64,0,0,0-3.57,15.86c11.5-.92,20.75-3.39,28.35,2.26,5.1,3.79,11,8.72,11,1.65A19.77,19.77,0,0,0,53.14,117.91Z" style="fill:#D144C9;opacity:0.30000000000000004"></path><path d="M61.91,154.56c-7.78,5.78-17.29,3.05-29.17,2.19a100.8,100.8,0,0,0,2.58,15.93H53.14a19.77,19.77,0,0,0,19.77-19.77C72.91,145.84,67,150.77,61.91,154.56Z" style="fill:#D144C9;opacity:0.30000000000000004"></path><path d="M53.14,117.42H37.21c-.11.32-.21.65-.31,1H53.14a19.3,19.3,0,0,1,19.28,19.28c0,1.64-.33,2.64-1,3-1.54.77-5.09-1.89-8.22-4.24l-1-.77c-3.84-2.85-8.1-3.68-12.8-3.68a90.68,90.68,0,0,0-9.75.73c-2,.22-4,.44-6.14.61,0,.33-.09.66-.14,1,2.19-.17,4.31-.4,6.38-.63,8.84-1,15.83-1.72,21.87,2.77l1,.77c3.12,2.33,6.09,4.56,8.19,4.56a2.32,2.32,0,0,0,1.06-.23c1-.51,1.51-1.77,1.51-3.84A20.28,20.28,0,0,0,53.14,117.42Z" style="fill:#D144C9"></path><path d="M71.89,149.07c-2.08-1-5.56,1.56-9.24,4.33l-1,.77c-6,4.49-13,3.73-21.87,2.76-2.29-.24-4.63-.49-7.06-.66l.09,1c2.36.17,4.64.41,6.87.66,8.69.94,16.2,1.76,22.55-3l1-.77c3.13-2.35,6.68-5,8.22-4.24.64.32,1,1.32,1,3a19.3,19.3,0,0,1-19.28,19.28H35.2l.24,1h17.7A20.28,20.28,0,0,0,73.4,152.91C73.4,150.83,72.9,149.57,71.89,149.07Z" style="fill:#D144C9"></path><path d="M53.14,117.42H37.29l-.3,1H53.14a19.3,19.3,0,0,1,19.28,19.28v15.23a19.3,19.3,0,0,1-19.28,19.28H35.38c.08.33.15.65.24,1H53.14A20.28,20.28,0,0,0,73.4,152.91V137.68A20.28,20.28,0,0,0,53.14,117.42Z" style="fill:#D144C9"></path><path d="M48.17,122.33a1.63,1.63,0,0,0-.27.63c-.25,1.29,1.11,2.31,2.34,2.77,2.64,1,5.5,1,8.09,2.26a24.2,24.2,0,0,1,4.86,3.42c1.19,1,5.79,3.87,5.37.11-.27-2.46-2.14-5-3.91-6.63a16.3,16.3,0,0,0-14.19-3.79A3.72,3.72,0,0,0,48.17,122.33Z" style="fill:#fff;opacity:0.8"></path><path d="M44.57,124a1.72,1.72,0,0,0-.67-2.22,3,3,0,0,0-2.45.07,1.62,1.62,0,0,0-1.08,1.41c0,.86.93,1.41,1.77,1.59a2.93,2.93,0,0,0,1.38,0A1.56,1.56,0,0,0,44.57,124Z" style="fill:#fff;opacity:0.8"></path><path d="M36,121.74c-.23.84-.44,1.69-.65,2.53C36.83,123.76,37.92,122.93,36,121.74Z" style="fill:#fff;opacity:0.8"></path><path d="M154.17,151.5h82.31c0-1.09.06-2.17.06-3.26s0-2,0-3H154.17C145,145.29,145,151.5,154.17,151.5Z" style="fill:#455a64"></path><path d="M158.38,148.39c0,1.17-2.17,2.11-4.86,2.11s-4.85-.94-4.85-2.11,2.17-2.1,4.85-2.1S158.38,147.23,158.38,148.39Z" style="fill:#263238"></path><path d="M136.44,148.37a2.71,2.71,0,0,1,1.06-.11,3.27,3.27,0,0,1,1,.28c.66.28,1.27.65,1.94.89a4.18,4.18,0,0,0,2,.26,4.24,4.24,0,0,0,1.63-.67,9.25,9.25,0,0,1,1.63-.9,2.51,2.51,0,0,1,1.75,0c.61.2,1.17.53,1.76.79a4.53,4.53,0,0,0,2.05.37,5.88,5.88,0,0,0,2.35-.67,7.76,7.76,0,0,1,1.13-.53,2.08,2.08,0,0,1,1.35,0s0,0,0,0a1.82,1.82,0,0,0-1.05-.2,3.18,3.18,0,0,0-1,.3c-.35.15-.69.32-1,.46a4.54,4.54,0,0,1-1,.28,4.22,4.22,0,0,1-2.17-.22c-.62-.23-1.2-.57-1.81-.83a3.57,3.57,0,0,0-1.85-.3,4.43,4.43,0,0,0-1.58.68,8.52,8.52,0,0,1-1.62.89,3.29,3.29,0,0,1-2.08,0c-.79-.24-1.48-.7-2.24-1a2.64,2.64,0,0,0-2.31-.06A.2.2,0,0,0,136.44,148.37Z" style="fill:#fff"></path><path d="M132.88,147.27l3.63.11c.55,0,.51,1.32,0,1.31l-3.63-.11Z" style="fill:#ebebeb"></path><path d="M133,150.14a4.37,4.37,0,0,1-3-1.38,1.28,1.28,0,0,1-.35-.92,1.3,1.3,0,0,1,.4-.91,4.39,4.39,0,0,1,3.05-1.2h.22a2.21,2.21,0,0,1-.12,4.41.2.2,0,0,1-.11,0Z" style="fill:#fff"></path></g></g></g><g id="freepik--pregnancy-test--inject-68"><g id="freepik--pregnancy-test--inject-68"><path d="M320.35,352.08c-7.63-4.41-22.07-3.21-32.24,2.67a22.94,22.94,0,0,0-6.86,5.72c-1.91,2.48-4.47,6.39-7.18,7.95l-73.2,40-10.32,4.67v10.64l21.61,12.48,7.13-6.52L293,384.87a40.78,40.78,0,0,1,10.53-3.57,40.23,40.23,0,0,0,12.22-4.5c6-3.48,9.2-7.82,9.2-11.7,0-1.8,0-4.31,0-6.16C324.94,356.29,323.44,353.86,320.35,352.08Z" style="fill:#e6e6e6"></path><path d="M191.93,413.16l9.2-4.17,73.24-40c2.37-1.37,4.57-4.35,6.34-6.74.36-.49.71-1,1-1.39a22.85,22.85,0,0,1,6.68-5.56,41.63,41.63,0,0,1,20-5.24c4.69,0,8.71.89,11.63,2.58s4.3,3.82,4.3,6.36c0,3.77-3.33,7.95-8.9,11.17a39.93,39.93,0,0,1-12,4.42,41.1,41.1,0,0,0-10.72,3.64l-73.76,40.32-6.85,6.25Z" style="fill:#f5f5f5"></path><path d="M308.4,350.68c4.58,0,8.49.86,11.32,2.49,2.6,1.51,4,3.52,4,5.82,0,3.54-3.2,7.52-8.57,10.62A39.31,39.31,0,0,1,303.28,374a41.29,41.29,0,0,0-10.89,3.7L218.69,418l-.14.07-.11.1L212,424l-18.68-10.78,8.08-3.66,0,0,0,0,73.23-40c2.47-1.43,4.71-4.47,6.52-6.9.36-.49.7-1,1-1.38a22.1,22.1,0,0,1,6.49-5.4,41,41,0,0,1,19.66-5.16m0-1.26a42,42,0,0,0-20.29,5.33,22.94,22.94,0,0,0-6.86,5.72c-1.91,2.48-4.47,6.39-7.18,7.95l-73.2,40-10.32,4.67,21.61,12.48,7.13-6.52L293,378.77a40.28,40.28,0,0,1,10.53-3.57,40.23,40.23,0,0,0,12.22-4.5c10.17-5.88,12.23-14.21,4.6-18.62-3.11-1.79-7.34-2.66-12-2.66Z" style="fill:#e0e0e0"></path><path d="M292.06,368.43c-4.1-2.36-3-6.83,2.46-10s13.19-3.8,17.29-1.43,3,6.83-2.47,10S296.15,370.79,292.06,368.43Z" style="fill:#ebebeb"></path><polygon points="219.29 419.05 219.29 429.69 212.16 436.21 212.16 425.57 219.29 419.05" style="opacity:0.1"></polygon><path d="M237.72,397.78a10.52,10.52,0,0,0,9.52-.18l4-2.3c2.71-1.57,2.85-4,.31-5.5A10.52,10.52,0,0,0,242,390l-4,2.3C235.31,393.85,235.18,396.31,237.72,397.78Z" style="fill:#e0e0e0"></path><path d="M251.54,391.55a10.55,10.55,0,0,0-9.52.17L238,394a4.3,4.3,0,0,0-1.93,2,3.59,3.59,0,0,0,1.63,1.75,10.52,10.52,0,0,0,9.52-.18l4-2.3a4.3,4.3,0,0,0,1.94-2A3.58,3.58,0,0,0,251.54,391.55Z" style="fill:#fafafa"></path><path d="M243.68,391a8.68,8.68,0,0,0-1.32.54L250,396l1.13-.65Z" style="fill:#D144C9"></path><path d="M246.41,398c.28-.13.57-.25.83-.4l.37-.21-7.7-4.45-1.13.65Z" style="fill:#D144C9"></path><path d="M212.16,425.57l-21.61-12.48L151.41,436.8c-1.62,1-2.42,2.26-2.39,3.53s0,9.37,0,10.64a4.24,4.24,0,0,0,2.46,3.4l6.65,3.83a13.71,13.71,0,0,0,11.91.23l42.12-22.22Z" style="fill:#D144C9"></path><path d="M212.16,425.57l-21.61-12.48L151.41,436.8c-1.62,1-2.42,2.26-2.39,3.53s0,9.37,0,10.64a4.24,4.24,0,0,0,2.46,3.4l6.65,3.83a13.71,13.71,0,0,0,11.91.23l42.12-22.22Z" style="opacity:0.1"></path><path d="M164,429.17v30.51a12.77,12.77,0,0,0,6-1.25l42.12-22.22V425.57l-21.61-12.48Z" style="opacity:0.1"></path><path d="M170,447.79a13.71,13.71,0,0,1-11.91-.22l-6.65-3.84a4.24,4.24,0,0,1-2.46-3.4c0-1.27.77-2.54,2.39-3.53l39.14-23.71,21.61,12.48Z" style="fill:#D144C9"></path></g></g></svg>
